<?xml version="1.0" encoding="UTF-8"?>
<svg width="33px" height="30px" viewBox="0 0 33 30" version="1.1" xmlns="http://www.w3.org/2000/svg" xmlns:xlink="http://www.w3.org/1999/xlink">
    <!-- Generator: Sketch 51.2 (57519) - http://www.bohemiancoding.com/sketch -->
    <title>Arrow dx</title>
    <desc>Created with Sketch.</desc>
    <defs></defs>
    <g id="Projects" stroke="none" stroke-width="1" fill="none" fill-rule="evenodd">
        <g id="Project-less-pictures" transform="translate(-1331.000000, -1936.000000)" fill="#2A4747" fill-rule="nonzero">
            <path d="M1346.84934,1936.43829 L1346.84785,1936.43829 C1347.13669,1936.71414 1347.30025,1937.09729 1347.30025,1937.49803 C1347.30025,1937.89877 1347.13669,1938.28192 1346.84785,1938.55778 L1335.17735,1949.89322 C1334.88843,1950.16934 1334.72483,1950.55274 1334.72483,1950.95372 C1334.72483,1951.3547 1334.88843,1951.73809 1335.17735,1952.01421 L1346.94175,1963.43966 C1347.23403,1963.7183 1347.39836,1964.10649 1347.39553,1964.51166 C1347.39271,1964.91683 1347.22299,1965.30266 1346.92684,1965.57715 C1346.32171,1966.14715 1345.35587,1966.13965 1344.75968,1965.56215 L1331.90424,1953.07471 C1331.32688,1952.52251 1331,1951.75605 1331,1950.95447 C1331,1950.15288 1331.32688,1949.38642 1331.90424,1948.83423 L1344.66727,1936.43829 C1345.27873,1935.8539 1346.23788,1935.8539 1346.84934,1936.43829 Z M1363.45377,1936.43829 L1363.45228,1936.43829 C1363.74112,1936.71414 1363.90468,1937.09729 1363.90468,1937.49803 C1363.90468,1937.89877 1363.74112,1938.28192 1363.45228,1938.55778 L1351.78178,1949.89322 C1351.49286,1950.16934 1351.32927,1950.55274 1351.32927,1950.95372 C1351.32927,1951.3547 1351.49286,1951.73809 1351.78178,1952.01421 L1363.54618,1963.43966 C1363.83847,1963.7183 1364.00279,1964.10649 1363.99996,1964.51166 C1363.99714,1964.91683 1363.82742,1965.30266 1363.53128,1965.57715 C1362.92614,1966.14715 1361.96031,1966.13965 1361.36411,1965.56215 L1348.50868,1953.07471 C1347.93131,1952.52251 1347.60443,1951.75605 1347.60443,1950.95447 C1347.60443,1950.15288 1347.93131,1949.38642 1348.50868,1948.83423 L1361.2717,1936.43829 C1361.88316,1935.8539 1362.84231,1935.8539 1363.45377,1936.43829 Z" id="Arrow-dx" transform="translate(1347.500000, 1951.000000) scale(-1, 1) translate(-1347.500000, -1951.000000) "></path>
        </g>
    </g>
</svg>