<?xml version="1.0" encoding="UTF-8"?>
<svg width="35px" height="35px" viewBox="0 0 35 35" version="1.1" xmlns="http://www.w3.org/2000/svg" xmlns:xlink="http://www.w3.org/1999/xlink">
    <!-- Generator: Sketch 51.2 (57519) - http://www.bohemiancoding.com/sketch -->
    <title>Github</title>
    <desc>Created with Sketch.</desc>
    <defs></defs>
    <g id="Home" stroke="none" stroke-width="1" fill="none" fill-rule="evenodd">
        <g id="M-Home" transform="translate(-15.000000, -514.000000)" fill="#2A4747" fill-rule="nonzero">
            <path d="M32.5273437,531.407031 L32.4726562,531.407031 C30.3015625,531.407031 28.3893229,530.854687 27.2572917,531.895573 C26.6349343,532.448566 26.2842233,533.245152 26.2966146,534.077604 C26.2966146,537.453646 29,537.869271 32.4744792,537.869271 L32.5273437,537.869271 C36,537.869271 38.7052083,537.451823 38.7052083,534.077604 C38.7052083,533.270052 38.4208333,532.517187 37.7445312,531.895573 C36.6106771,530.854687 34.6984375,531.407031 32.5273437,531.407031 Z M29.5705729,536.020833 C28.9088542,536.020833 28.3747396,535.277083 28.3747396,534.361979 C28.3747396,533.446875 28.9088542,532.706771 29.5705729,532.706771 C30.2322917,532.706771 30.7682292,533.446875 30.7682292,534.361979 C30.7700521,535.277083 30.2341146,536.020833 29.5705729,536.020833 Z M35.4276042,536.020833 C34.7658854,536.020833 34.2299479,535.277083 34.2299479,534.361979 C34.2299479,533.446875 34.7658854,532.706771 35.4276042,532.706771 C36.0875,532.706771 36.6234375,533.446875 36.6234375,534.361979 C36.6252604,535.277083 36.0893229,536.020833 35.4276042,536.020833 Z M32.5,514 C22.8348958,514 15,521.834896 15,531.5 C15,541.165104 22.8348958,549 32.5,549 C42.1651042,549 50,541.165104 50,531.5 C50,521.834896 42.1651042,514 32.5,514 Z M34.096875,538.680469 C33.7833333,538.680469 33.1598958,538.680469 32.5,538.684115 C31.8401042,538.680469 31.2166667,538.680469 30.903125,538.680469 C29.5177083,538.680469 24.0270833,538.572917 24.0270833,531.955729 C24.0270833,530.435417 24.5484375,529.321615 25.4033854,528.391927 C25.2684896,528.05651 25.2611979,526.146094 25.9867187,524.315885 C25.9867187,524.315885 27.6565104,524.498177 30.18125,526.231771 C30.7080729,526.084115 31.6049479,526.009375 32.5,526.009375 C33.3950521,526.009375 34.2901042,526.084115 34.8205729,526.229948 C37.3453125,524.496354 39.0151042,524.314062 39.0151042,524.314062 C39.740625,526.144271 39.7351562,528.05651 39.5984375,528.390104 C40.4533854,529.319792 40.9747396,530.433594 40.9747396,531.953906 C40.9729167,538.57474 35.4822917,538.680469 34.096875,538.680469 Z" id="Github"></path>
        </g>
    </g>
</svg>