<?xml version="1.0" encoding="UTF-8"?>
<svg width="38px" height="38px" viewBox="0 0 38 38" version="1.1" xmlns="http://www.w3.org/2000/svg" xmlns:xlink="http://www.w3.org/1999/xlink">
    <!-- Generator: Sketch 52.2 (67145) - http://www.bohemiancoding.com/sketch -->
    <title>LinkedIn</title>
    <desc>Created with Sketch.</desc>
    <g id="Projects" stroke="none" stroke-width="1" fill="none" fill-rule="evenodd">
        <g id="Project-page" transform="translate(-706.000000, -2531.000000)" fill="#2A4747">
            <g id="Group-6" transform="translate(706.000000, 2531.000000)">
                <path d="M19,38 C8.50658975,38 0,29.4934102 0,19 C0,8.50658975 8.50658975,0 19,0 C29.4934102,0 38,8.50658975 38,19 C38,29.4934102 29.4934102,38 19,38 Z M10.2729381,27.7447285 C12.6852889,30.1570793 16.5964824,30.1570793 19.0088333,27.7447285 L20.1008202,26.6527416 L16.8248595,25.5607547 C15.6186841,26.7669301 13.6630873,26.7669301 12.4569119,25.5607547 C11.2507365,24.3545792 11.2507365,22.3989825 12.4569119,21.1928071 L15.7328726,17.9168464 C16.939048,16.710671 18.8946448,16.710671 20.1008202,17.9168464 L22.284794,15.7328726 C19.8724431,13.3205217 15.9612496,13.3205217 13.5488988,15.7328726 L10.2729381,19.0088333 C7.86058726,21.4211841 7.86058726,25.3323776 10.2729381,27.7447285 Z M17.9168464,11.364925 L21.1928071,12.4569119 C22.3989825,11.2507365 24.3545792,11.2507365 25.5607547,12.4569119 C26.7669301,13.6630873 26.7669301,15.6186841 25.5607547,16.8248595 L22.284794,20.1008202 C21.0786186,21.3069956 19.1230218,21.3069956 17.9168464,20.1008202 L15.7328726,22.284794 C18.1452234,24.6971448 22.0564169,24.6971448 24.4687678,22.284794 L27.7447285,19.0088333 C30.1570793,16.5964824 30.1570793,12.6852889 27.7447285,10.2729381 C25.3323776,7.86058726 21.4211841,7.86058726 19.0088333,10.2729381 L17.9168464,11.364925 Z" id="LinkedIn"></path>
            </g>
        </g>
    </g>
</svg>