<?xml version="1.0" encoding="UTF-8"?>
<svg width="35px" height="35px" viewBox="0 0 35 35" version="1.1" xmlns="http://www.w3.org/2000/svg" xmlns:xlink="http://www.w3.org/1999/xlink">
    <!-- Generator: Sketch 51.2 (57519) - http://www.bohemiancoding.com/sketch -->
    <title>Linkedin</title>
    <desc>Created with Sketch.</desc>
    <defs></defs>
    <g id="Home" stroke="none" stroke-width="1" fill="none" fill-rule="evenodd">
        <g id="M-Home" transform="translate(-15.000000, -469.000000)" fill="#2A4747" fill-rule="nonzero">
            <path d="M32.5,504 C22.8350169,504 15,496.16498 15,486.5 C15,476.83502 22.8350169,469 32.5,469 C42.1649831,469 50,476.83502 50,486.5 C50,496.16498 42.1649831,504 32.5,504 Z M42.7083333,488.169412 C42.7083333,484.318552 40.6521913,482.526632 37.9092281,482.526632 C35.6953702,482.526632 34.7062965,483.745157 34.1525615,484.598115 L34.1525615,484.638736 L34.1251236,484.638736 C34.1331175,484.625772 34.1441359,484.611509 34.1525615,484.598115 L34.1525615,482.821114 L29.9838886,482.821114 C30.0400615,483.998149 29.9838886,495.358026 29.9838886,495.358026 L34.152778,495.358026 L34.152778,488.356728 C34.152778,487.981448 34.1810799,487.608552 34.2910492,487.34043 C34.5924385,486.590956 35.2777466,485.815991 36.4292903,485.815991 C37.9379631,485.815991 38.5407404,486.965799 38.5407404,488.650772 L38.5407404,495.358026 L42.7083333,495.358026 L42.7083333,488.169412 Z M25.6229324,476.77778 C24.1967903,476.77778 23.2638886,477.713272 23.2638886,478.943456 C23.2638886,480.146851 24.1697842,481.110649 25.5676236,481.110649 L25.5954939,481.110649 C27.0492903,481.110649 27.953457,480.14707 27.953457,478.943456 C27.9260184,477.713272 27.0492903,476.77778 25.6229324,476.77778 Z M23.5114816,495.358026 L27.6788579,495.358026 L27.6788579,482.821114 L23.5114816,482.821114 L23.5114816,495.358026 Z" id="Linkedin"></path>
        </g>
    </g>
</svg>