<?xml version="1.0" encoding="utf-8"?>
<!-- Generator: Adobe Illustrator 22.1.0, SVG Export Plug-In . SVG Version: 6.00 Build 0)  -->
<svg version="1.0" id="Layer_1" xmlns="http://www.w3.org/2000/svg" xmlns:xlink="http://www.w3.org/1999/xlink" x="0px" y="0px"
	 viewBox="0 0 320 143" style="enable-background:new 0 0 320 143;" xml:space="preserve">
<style type="text/css">
	.st0{fill:#2A4747;}
	.st1{fill:#FFFFFF;}
</style>
<title>Project bar</title>
<desc>Created with Sketch.</desc>
<g id="Group" transform="translate(140.000000, 0.000000)">
	<path class="st0" d="M39.6,16C37.7,6.9,29.7,0,20,0S2.3,6.9,0.4,16H-140v127h320V16H39.6z"/>
	<path id="Arrow-sx-Copy" class="st1" d="M13,17.2L13,17.2c0.1,0.1,0.3,0.2,0.5,0.2s0.4-0.1,0.5-0.2l5.7-5.9
		c0.1-0.1,0.3-0.2,0.5-0.2c0.2,0,0.4,0.1,0.5,0.2l5.7,5.9c0.1,0.1,0.3,0.2,0.5,0.2c0.2,0,0.4-0.1,0.5-0.2c0.3-0.3,0.3-0.8,0-1.1
		l-6.2-6.5c-0.3-0.3-0.7-0.5-1.1-0.5s-0.8,0.2-1.1,0.5L13,16.1C12.7,16.4,12.7,16.9,13,17.2z M13,25.5L13,25.5
		c0.1,0.1,0.3,0.2,0.5,0.2s0.4-0.1,0.5-0.2l5.7-5.9c0.1-0.1,0.3-0.2,0.5-0.2c0.2,0,0.4,0.1,0.5,0.2l5.7,5.9c0.1,0.1,0.3,0.2,0.5,0.2
		c0.2,0,0.4-0.1,0.5-0.2c0.3-0.3,0.3-0.8,0-1.1L21.3,18c-0.3-0.3-0.7-0.5-1.1-0.5s-0.8,0.2-1.1,0.5L13,24.4
		C12.7,24.7,12.7,25.2,13,25.5z"/>
</g>
</svg>
